<svg width="18" height="18" viewBox="0 0 24 24" fill="none" xmlns="http://www.w3.org/2000/svg">
<path d="M7.20679 2.54279C7.39426 2.73031 7.49957 2.98462 7.49957 3.24979C7.49957 3.51495 7.39426 3.76926 7.20679 3.95679L5.41379 5.74979H13.2498C14.832 5.74979 16.3788 6.21898 17.6943 7.09803C19.0099 7.97708 20.0353 9.22651 20.6408 10.6883C21.2463 12.1501 21.4048 13.7587 21.0961 15.3105C20.7874 16.8624 20.0255 18.2878 18.9066 19.4066C17.7878 20.5255 16.3624 21.2874 14.8105 21.5961C13.2587 21.9048 11.6501 21.7463 10.1883 21.1408C8.72651 20.5353 7.47708 19.5099 6.59803 18.1943C5.71898 16.8788 5.24979 15.332 5.24979 13.7498C5.24979 13.4846 5.35514 13.2302 5.54268 13.0427C5.73022 12.8551 5.98457 12.7498 6.24979 12.7498C6.515 12.7498 6.76936 12.8551 6.95689 13.0427C7.14443 13.2302 7.24979 13.4846 7.24979 13.7498C7.24979 14.9365 7.60168 16.0965 8.26097 17.0832C8.92026 18.0699 9.85733 18.8389 10.9537 19.2931C12.05 19.7472 13.2564 19.866 14.4203 19.6345C15.5842 19.403 16.6533 18.8315 17.4924 17.9924C18.3315 17.1533 18.903 16.0842 19.1345 14.9203C19.366 13.7564 19.2472 12.55 18.7931 11.4537C18.3389 10.3573 17.5699 9.42026 16.5832 8.76097C15.5965 8.10168 14.4365 7.74979 13.2498 7.74979H5.41379L7.20679 9.54279C7.38894 9.73139 7.48974 9.98399 7.48746 10.2462C7.48518 10.5084 7.38001 10.7592 7.1946 10.9446C7.0092 11.13 6.75838 11.2352 6.49619 11.2375C6.23399 11.2397 5.98139 11.1389 5.79279 10.9568L2.29279 7.45679C2.10532 7.26926 2 7.01495 2 6.74979C2 6.48462 2.10532 6.23031 2.29279 6.04279L5.79279 2.54279C5.98031 2.35532 6.23462 2.25 6.49979 2.25C6.76495 2.25 7.01926 2.35532 7.20679 2.54279Z" fill="black"/>
</svg>
