<svg width="22" height="22" viewBox="0 0 22 22" fill="none" xmlns="http://www.w3.org/2000/svg">
<path d="M0 11C0 4.925 4.925 0 11 0C17.075 0 22 4.925 22 11C22 17.075 17.075 22 11 22C4.925 22 0 17.075 0 11ZM8.036 6.976C7.89374 6.84359 7.70569 6.77149 7.51137 6.77484C7.31705 6.7782 7.1316 6.85676 6.994 6.994C6.85676 7.1316 6.7782 7.31705 6.77484 7.51137C6.77149 7.70569 6.84359 7.89374 6.976 8.036L9.939 11L6.976 13.963C6.87728 14.0547 6.8051 14.1713 6.76709 14.3005C6.72908 14.4298 6.72663 14.5669 6.76 14.6974C6.79337 14.8279 6.86133 14.947 6.95672 15.0422C7.05211 15.1373 7.17139 15.205 7.302 15.238C7.43238 15.2714 7.56935 15.2691 7.69851 15.2313C7.82768 15.1934 7.94426 15.1215 8.036 15.023L11 12.06L13.963 15.024C14.1044 15.1607 14.2938 15.2364 14.4905 15.2348C14.6871 15.2331 14.8752 15.1544 15.0144 15.0154C15.1535 14.8764 15.2325 14.6883 15.2343 14.4917C15.2361 14.295 15.1606 14.1055 15.024 13.964L12.061 11L15.024 8.036C15.1227 7.94433 15.1949 7.82773 15.2329 7.69848C15.2709 7.56923 15.2734 7.43212 15.24 7.30159C15.2066 7.17107 15.1387 7.05196 15.0433 6.95682C14.9479 6.86168 14.8286 6.79403 14.698 6.761C14.5676 6.72758 14.4307 6.72991 14.3015 6.76775C14.1723 6.80558 14.0557 6.87752 13.964 6.976L11 9.939L8.036 6.976Z" fill="white"/>
</svg>
