<svg width="22" height="22" viewBox="0 0 22 22" fill="none" xmlns="http://www.w3.org/2000/svg">
<path d="M0 11C0 4.925 4.925 0 11 0C17.075 0 22 4.925 22 11C22 17.075 17.075 22 11 22C4.925 22 0 17.075 0 11ZM16.28 8.28C16.4124 8.13774 16.4845 7.94969 16.4812 7.75537C16.4778 7.56105 16.3992 7.3756 16.262 7.238C16.1244 7.10076 15.9389 7.0222 15.7446 7.01884C15.5503 7.01549 15.3623 7.08759 15.22 7.22L9.25 13.19L6.78 10.72C6.63774 10.5876 6.44969 10.5155 6.25537 10.5188C6.06105 10.5222 5.8756 10.6008 5.738 10.738C5.60076 10.8756 5.5222 11.0611 5.51884 11.2554C5.51549 11.4497 5.58759 11.6377 5.72 11.78L8.72 14.78C8.86063 14.9205 9.05125 14.9993 9.25 14.9993C9.44875 14.9993 9.63937 14.9205 9.78 14.78L16.28 8.28Z" fill="white"/>
</svg>
