<svg width="24" height="21" viewBox="0 0 24 21" fill="none" xmlns="http://www.w3.org/2000/svg">
<path d="M9.83548 1.24387C10.7985 -0.421133 13.2005 -0.421133 14.1635 1.24387L23.1305 16.7479C24.0935 18.4149 22.8905 20.4999 20.9655 20.4999H3.03348C1.10748 20.4999 -0.0945157 18.4149 0.868484 16.7479L9.83548 1.24387ZM11.9995 6.49987C11.8006 6.49987 11.6098 6.57889 11.4692 6.71954C11.3285 6.86019 11.2495 7.05096 11.2495 7.24987V11.7499C11.2495 11.9488 11.3285 12.1395 11.4692 12.2802C11.6098 12.4208 11.8006 12.4999 11.9995 12.4999C12.1984 12.4999 12.3892 12.4208 12.5298 12.2802C12.6705 12.1395 12.7495 11.9488 12.7495 11.7499V7.24987C12.7495 7.05096 12.6705 6.86019 12.5298 6.71954C12.3892 6.57889 12.1984 6.49987 11.9995 6.49987ZM12.9995 15.4999C12.9995 15.2347 12.8941 14.9803 12.7066 14.7928C12.5191 14.6052 12.2647 14.4999 11.9995 14.4999C11.7343 14.4999 11.4799 14.6052 11.2924 14.7928C11.1048 14.9803 10.9995 15.2347 10.9995 15.4999C10.9995 15.7651 11.1048 16.0194 11.2924 16.207C11.4799 16.3945 11.7343 16.4999 11.9995 16.4999C12.2647 16.4999 12.5191 16.3945 12.7066 16.207C12.8941 16.0194 12.9995 15.7651 12.9995 15.4999Z" fill="white"/>
</svg>
